<?xml version="1.0" standalone="no"?>
<svg viewBox="0 0 200 200" xmlns="http://www.w3.org/2000/svg">
  <path fill="#08BDBA" d="M44,-76.9C57.1,-68.6,67.9,-57,76.8,-43.7C85.6,-30.3,92.5,-15.2,92.1,-0.2C91.7,14.7,84,29.4,75.6,43.5C67.2,57.5,58,71,45.2,79.1C32.5,87.2,16.3,89.9,0.4,89.3C-15.5,88.7,-31.1,84.7,-44.8,77.2C-58.4,69.6,-70.2,58.5,-77.7,45C-85.2,31.6,-88.3,15.8,-87.3,0.6C-86.3,-14.6,-81.2,-29.2,-73.9,-43.2C-66.7,-57.1,-57.5,-70.3,-44.8,-78.9C-32.2,-87.5,-16.1,-91.5,-0.3,-91C15.4,-90.4,30.8,-85.2,44,-76.9Z" transform="translate(100 100)" />
</svg>
