<?xml version="1.0" standalone="no"?>
<svg viewBox="0 0 200 200" xmlns="http://www.w3.org/2000/svg">
  <path fill="#08BDBA" d="M37,-65.2C49,-57.2,60.3,-49.3,67.1,-38.5C73.8,-27.6,75.8,-13.8,74,-1.1C72.1,11.7,66.4,23.4,60.1,34.9C53.8,46.5,47,58,36.9,68.2C26.7,78.4,13.4,87.2,0.9,85.7C-11.6,84.1,-23.1,72.1,-33.1,61.8C-43,51.5,-51.2,42.9,-57,32.9C-62.8,22.9,-66.1,11.4,-68.8,-1.6C-71.6,-14.6,-73.8,-29.2,-69,-41C-64.3,-52.9,-52.6,-61.9,-40,-69.5C-27.3,-77,-13.6,-83.1,-0.6,-82.2C12.5,-81.2,25.1,-73.2,37,-65.2Z" transform="translate(100 100)" />
</svg>
