<svg style="object-fit:cover" id="my-svg" version="1" baseProfile="full" width="100%" height="100%" viewBox="0 0 1366 657" xmlns="http://www.w3.org/2000/svg"><rect width="1366" height="657" fill="#ebebeb"/><defs><linearGradient id="linear-gradient" x1="0" x2="1" y1="0" y2="1"><stop offset="0%" stop-color="#0059ff80"/><stop offset="100%" stop-color="#8097ff80"/></linearGradient></defs><path transform="scale(1, -1)" style="transform-origin:center" d="M 0,657 V 0,525 C 184.16666666666669,581 368.33333333333337,637 596,637 C 823.6666666666666,637 1094.8333333333333,581 1366,525 C 1366,525 1366,657 1366,657 Z" stroke="none" stroke-width="0" fill="url(#linear-gradient)" class="transition-all duration-300 ease-in-out delay-150"/><defs><linearGradient id="linear-gradient" x1="0" x2="1" y1="0" y2="1"><stop offset="0%" stop-color="#0059ff90"/><stop offset="100%" stop-color="#8097ff90"/></linearGradient></defs><path transform="scale(1, -1)" d="M 0,657 V 0,788 C 265.6666666666667,740.5 531.3333333333334,693 759,693 C 986.6666666666666,693 1176.3333333333333,740.5 1366,788 C 1366,788 1366,657 1366,657 Z" stroke="none" stroke-width="0" fill="url(#linear-gradient)" class="transition-all duration-300 ease-in-out delay-150" style="transform-origin: center center;"/><defs><linearGradient id="linear-gradient" x1="0" x2="1" y1="0" y2="1"><stop offset="0%" stop-color="#0059ffff"/><stop offset="100%" stop-color="#8097ffff"/></linearGradient></defs><path transform="scale(1, -1)" d="M 0,657 V 0,1182 C 215.66666666666669,1194 431.33333333333337,1206 659,1206 C 886.6666666666666,1206 1126.3333333333333,1194 1366,1182 C 1366,1182 1366,657 1366,657 Z" stroke="none" stroke-width="0" fill="url(#linear-gradient)" class="transition-all duration-300 ease-in-out delay-150" style="transform-origin: center center;"/></svg>