<svg style="object-fit:cover" id="my-svg" version="1" baseProfile="full" width="100%" height="100%" viewBox="0 0 1366 657" xmlns="http://www.w3.org/2000/svg"><rect width="1366" height="657" fill="#ebebeb"/><defs><linearGradient id="linear-gradient" x1="0" x2="1" y1="0" y2="1"><stop offset="0%" stop-color="#0059ff50"/><stop offset="100%" stop-color="#8097ff50"/></linearGradient></defs><path transform="scale(1, 1)" style="transform-origin:center" d="M 0,657 V 0,65 C 81.33931623931625,59.33846153846154 162.6786324786325,53.676923076923075 246,53 C 329.3213675213675,52.323076923076925 414.6247863247863,56.63076923076923 485,62 C 555.3752136752137,67.36923076923077 610.8222222222222,73.8 680,80 C 749.1777777777778,86.2 832.0863247863248,92.16923076923078 907,85 C 981.9136752136752,77.83076923076922 1048.8324786324786,57.523076923076914 1124,52 C 1199.1675213675214,46.476923076923086 1282.5837606837608,55.73846153846154 1366,65 C 1366,65 1366,657 1366,657 Z" stroke="none" stroke-width="0" fill="url(#linear-gradient)" class="transition-all duration-300 ease-in-out delay-150"/><defs><linearGradient id="linear-gradient" x1="0" x2="1" y1="0" y2="1"><stop offset="0%" stop-color="#0059ff60"/><stop offset="100%" stop-color="#8097ff60"/></linearGradient></defs><path transform="scale(1, 1)" d="M 0,657 V 0,98 C 55.475213675213666,94.14358974358974 110.95042735042733,90.28717948717949 190,95 C 269.04957264957267,99.71282051282051 371.67350427350436,112.9948717948718 450,119 C 528.3264957264956,125.0051282051282 582.3555555555555,123.73333333333333 654,116 C 725.6444444444445,108.26666666666667 814.9042735042735,94.07179487179486 893,95 C 971.0957264957265,95.92820512820514 1038.0273504273505,111.97948717948718 1115,115 C 1191.9726495726495,118.02051282051282 1278.9863247863248,108.0102564102564 1366,98 C 1366,98 1366,657 1366,657 Z" stroke="none" stroke-width="0" fill="url(#linear-gradient)" class="transition-all duration-300 ease-in-out delay-150" style="transform-origin: center center;"/><defs><linearGradient id="linear-gradient" x1="0" x2="1" y1="0" y2="1"><stop offset="0%" stop-color="#0059ff70"/><stop offset="100%" stop-color="#8097ff70"/></linearGradient></defs><path transform="scale(1, 1)" d="M 0,657 V 0,147 C 52.55726495726495,131.95641025641027 105.1145299145299,116.9128205128205 192,124 C 278.8854700854701,131.0871794871795 400.09914529914533,160.30512820512823 492,163 C 583.9008547008547,165.69487179487177 646.4888888888889,141.86666666666667 707,144 C 767.5111111111111,146.13333333333333 825.945299145299,174.22820512820516 892,171 C 958.054700854701,167.77179487179484 1031.7299145299146,133.22051282051282 1112,124 C 1192.2700854700854,114.77948717948718 1279.1350427350426,130.8897435897436 1366,147 C 1366,147 1366,657 1366,657 Z" stroke="none" stroke-width="0" fill="url(#linear-gradient)" class="transition-all duration-300 ease-in-out delay-150" style="transform-origin: center center;"/><defs><linearGradient id="linear-gradient" x1="0" x2="1" y1="0" y2="1"><stop offset="0%" stop-color="#0059ff80"/><stop offset="100%" stop-color="#8097ff80"/></linearGradient></defs><path transform="scale(1, 1)" d="M 0,657 V 0,221 C 82.86239316239315,215.31025641025641 165.7247863247863,209.62051282051283 248,211 C 330.2752136752137,212.37948717948717 411.96324786324794,220.82820512820513 478,224 C 544.036752136752,227.17179487179487 594.4222222222222,225.06666666666666 673,221 C 751.5777777777778,216.93333333333334 858.3478632478632,210.90512820512822 937,214 C 1015.6521367521368,217.09487179487178 1066.1863247863248,229.3128205128205 1133,232 C 1199.8136752136752,234.6871794871795 1282.9068376068376,227.84358974358975 1366,221 C 1366,221 1366,657 1366,657 Z" stroke="none" stroke-width="0" fill="url(#linear-gradient)" class="transition-all duration-300 ease-in-out delay-150" style="transform-origin: center center;"/><defs><linearGradient id="linear-gradient" x1="0" x2="1" y1="0" y2="1"><stop offset="0%" stop-color="#0059ff90"/><stop offset="100%" stop-color="#8097ff90"/></linearGradient></defs><path transform="scale(1, 1)" d="M 0,657 V 0,332 C 67.06495726495726,334.9948717948718 134.12991452991452,337.9897435897436 216,334 C 297.8700854700855,330.0102564102564 394.54529914529917,319.0358974358974 473,318 C 551.4547008547008,316.9641025641026 611.688888888889,325.8666666666666 682,333 C 752.311111111111,340.1333333333334 832.6991452991454,345.49743589743593 907,342 C 981.3008547008546,338.50256410256407 1049.51452991453,326.1435897435897 1125,323 C 1200.48547008547,319.8564102564103 1283.2427350427351,325.92820512820515 1366,332 C 1366,332 1366,657 1366,657 Z" stroke="none" stroke-width="0" fill="url(#linear-gradient)" class="transition-all duration-300 ease-in-out delay-150" style="transform-origin: center center;"/><defs><linearGradient id="linear-gradient" x1="0" x2="1" y1="0" y2="1"><stop offset="0%" stop-color="#0059ffff"/><stop offset="100%" stop-color="#8097ffff"/></linearGradient></defs><path transform="scale(1, 1)" d="M 0,657 V 0,498 C 70.2982905982906,503.0076923076923 140.5965811965812,508.0153846153846 216,511 C 291.4034188034188,513.9846153846154 371.9119658119658,514.9461538461538 441,518 C 510.0880341880342,521.0538461538462 567.7555555555556,526.2 644,522 C 720.2444444444444,517.8 815.0658119658119,504.25384615384615 894,499 C 972.9341880341881,493.74615384615385 1035.9811965811966,496.7846153846154 1112,498 C 1188.0188034188034,499.2153846153846 1277.0094017094016,498.60769230769233 1366,498 C 1366,498 1366,657 1366,657 Z" stroke="none" stroke-width="0" fill="url(#linear-gradient)" class="transition-all duration-300 ease-in-out delay-150" style="transform-origin: center center;"/></svg>